<svg version="1" xmlns="http://www.w3.org/2000/svg" width="770.667" height="770.667" viewBox="0 0 578.000000 578.000000"><path d="M287.1 8.7c-7.7 48.4-15.8 80.2-25.3 98.4-6.8 13.2-6.3 13.3-15.1-4.9-4.2-8.6-9.7-20.4-12.2-26.2-2.4-5.8-4.5-9.6-4.5-8.5 0 1.1.7 8.7 1.4 17 .8 8.2 1.7 21 2.1 28.2l.7 13.3-4.8-1.7c-6.6-2.2-13.5-6.4-21.5-12.9-9.7-7.9-30.8-29.9-44.9-46.9-6.9-8.3-14.2-17.1-16.3-19.5l-3.7-4.5 1.8 5c1.1 2.7 4.2 10.9 7 18.1C164 95 172 122.1 174.1 139c1.3 11.1.6 19.5-1.7 18.6-2.2-.8-22.7-14.4-34.4-22.7-13.1-9.3-13.6-9.6-12.5-7.8.5.8 3.3 4.6 6.2 8.6 6.4 8.7 25.3 37.3 25.3 38.3 0 1.5-10 2-18.6 1-17.7-2-45.9-10.5-81.3-24.4-9.1-3.6-16.6-6.4-16.8-6.3-.1.2 3.9 3.7 9 7.8 38.1 30.7 65.6 58.5 72 72.8 3.1 7 3.8 10.1 2.2 10.1-5.5 0-38.3-2.3-47.3-3.4-6.2-.7-10.9-.9-10.5-.5.5.4 6 2.9 12.3 5.7 6.3 2.7 17.7 8 25.3 11.7 15.6 7.6 15.5 7.3 4.9 13.2C91.6 271 64.6 278.3 19 286 8.9 287.7.4 289.2.3 289.4c-.2.2 4.7 1.1 10.9 2 45.9 7 82.5 16.8 97.9 26.2 9.4 5.7 9.6 5.2-6.9 13.2-8.1 3.9-19.9 9.4-26.2 12.1-6.3 2.8-10.8 5.1-10 5.1.8 0 8.1-.7 16.2-1.5s21-1.8 28.7-2.1l14-.7-.9 3.3c-4.4 15.3-25.3 38.6-62.6 69.5C37.6 436.2 38.2 435.7 45 433c46.1-18.3 70.6-26.1 90.8-29 7.9-1.2 19.5-1 20.7.2.9.8-8.3 15.5-20.2 32.3-12.5 17.7-12.4 17.5-8.2 14.4 7.4-5.5 29.8-20.9 37.6-25.7l8.1-5.1.7 5c1.2 8.9-1.3 25.1-7.2 45.4-3.4 11.8-15.2 44.8-21.3 59.4-1.6 4.1-2.9 7.6-2.7 7.8.2.2 3.5-3.6 7.3-8.4 19.9-25.2 44.4-51.6 57.9-62.5 7.4-5.9 18.1-12.1 22.8-13.2 2.6-.6 2.7-.5 2.7 3.1 0 5.6-1.8 31.2-3.1 43.6-.6 6-.9 11-.7 11.2.2.2 2.6-4.6 5.2-10.8 2.7-6.2 8.1-17.7 12-25.6l7-14.4 2.9 3.4c10.1 12.1 20 46.4 28.9 100.4l2.3 14 1.3-7.5c10.2-59 17-85.2 26.2-101.1 6.3-10.7 5.8-10.9 13.8 5.3 3.8 7.9 9.1 19.2 11.7 25.3 2.6 6 5.2 11.4 5.7 12 .6.6.7.5.4-.5-.7-2-3.3-31.4-4.1-46.8l-.7-12.3 2.8.7c4.8 1.1 15.5 7.3 22.9 13.2 13.3 10.7 33.4 32.1 54.5 58.2 10.5 13 11.5 14.2 10.7 12-.3-.8-3.8-9.8-7.7-20-17.5-45.1-25.3-75.4-23.5-91.1l.7-5.8 8.1 5.1c7.8 4.8 30.2 20.2 37.6 25.7 4.2 3.1 4.2 3.2-8.5-14.9-12.2-17.3-20.8-31-19.9-31.8.3-.3 3.2-.8 6.5-1 16.1-1.2 47.5 7.2 92.4 24.8 10.6 4 17.2 6.2 16 5.1-1-1-9.8-8.3-19.5-16.4-37.2-30.8-56.6-52.2-62.5-69l-1.4-4 14 .7c7.7.3 20.7 1.3 28.8 2.1 8.1.8 15.4 1.5 16.2 1.5.8 0-4.1-2.5-11-5.5-6.9-3.1-18.7-8.5-26.2-12.2-15.4-7.4-15.3-7.1-5.9-12.7 6.9-4.2 18-8.6 32.1-12.7 11.4-3.3 47.8-10.8 65.8-13.5 6.2-.9 11.1-1.8 11-2-.2-.1-9.7-1.9-21.3-3.9-48.5-8.3-74.2-15.7-89.6-25.7l-6.2-3.9 2.9-1.8c3.9-2.4 23.1-11.5 38.1-18.1 6.8-3 12.2-5.5 12-5.6-.1-.1-5.3.5-11.6 1.2-9.2 1.1-41.9 3.4-47.6 3.4-1.7 0-.7-3.9 2.6-10.8 7.2-14.9 33.7-41.5 71.7-72.1 5.1-4.1 9.1-7.6 8.9-7.7-.2-.2-7.7 2.6-16.8 6.2-34.9 13.8-63.6 22.4-81.3 24.4-8.6 1-18.6.5-18.6-1 0-1 18.5-29 25.1-38 3.1-4.1 5.9-8.1 6.4-8.9 1.1-1.8.8-1.7-14.1 8.9-17 12.1-33.3 22.4-34.2 21.5-.4-.3-.6-5.2-.6-10.8.3-19.9 6.4-40.6 29-99.5 1.3-3.4 2.2-6.2 2-6.2-.2 0-3.9 4.4-8.2 9.7-19.5 24.4-45.4 52.1-58.4 62.5-6.1 4.9-13.5 9.1-19.4 11.1l-4.9 1.7.7-12.3c.6-10.9 1.2-18.6 3.2-41.7l.5-6.5L343 75c-2.2 5.2-7.7 17-12.2 26.2-9.4 19.4-8.8 19.2-15.6 5.9-9.1-17.5-16-43.8-24.3-92.6-1.2-7.2-2.3-13.1-2.4-13.3-.1-.1-.8 3.2-1.4 7.5zM314 139.6c63.2 10.8 112.5 59.7 124.1 123.2 5.7 30.9.7 65.6-13.3 93.7-15.3 30.7-40.7 55.6-71.1 70-13 6.1-20.4 8.6-34.2 11.7-8.6 1.9-13 2.2-31 2.2-22.2 0-31.1-1.2-47.5-6.5-10.5-3.5-28.2-12.2-38.2-19-12.1-8.2-31.4-27.5-39.5-39.4-17.8-26.4-26.6-55.1-26.6-86.5.2-94 84.7-165.2 177.3-149.4z"/><path d="M274.5 154c-31.8 3.6-59.6 17-82 39.4-26.2 26.3-39.7 58.8-39.8 95.6 0 33.4 10.6 62.6 32 88.1 19.3 23 46.2 38.9 77.8 46 8.2 1.9 43.8 1.9 52 0 31.7-7.1 58.4-22.9 77.7-45.9 21.5-25.6 32.3-55.1 32.1-88.2-.1-37-13.6-69.3-39.8-95.6-24.8-24.8-55.7-38.3-91.3-39.8-5.9-.3-14.3-.1-18.7.4z"/></svg>